# xmcd CD database file
#
# Track frame offsets:
#	150
#	13907
#	27415
#	47766
#	60938
#	75433
#	91320
#	109408
#	124953
#	138670
#	157921
#	173696
#	186134
#
# Disc length: 2687 seconds
#
# Revision: 1
# Processed by: cddbd v1.5.2PL0 Copyright (c) Steve Scherf et al.
# Submitted via: CDex 1.70beta2
#
DISCID=a50a7d0d
DTITLE=Lianie May - Kersfees met Lianie
DYEAR=2008
DGENRE=Folk
TTITLE0=Sneeuman
TTITLE1=Geskenk uit Bethlehem
TTITLE2=Chiquitita
TTITLE3=Mary's Boy Child
TTITLE4=Rivers of Babylon
TTITLE5=Last Christmas
TTITLE6=I have a Dream
TTITLE7=Drummer Boy
TTITLE8=When a Child is Born
TTITLE9=Silent Night
TTITLE10=Feliz Navidad
TTITLE11=All i want for Christmas
TTITLE12=Die goeie oue tyd
EXTD=YEAR: 2008
EXTT0=
EXTT1=
EXTT2=
EXTT3=
EXTT4=
EXTT5=
EXTT6=
EXTT7=
EXTT8=
EXTT9=
EXTT10=
EXTT11=
EXTT12=
PLAYORDER=
